<svg xmlns="http://www.w3.org/2000/svg" width="1200" height="675" viewBox="0 0 1200 675">
<defs><linearGradient id="bg" x2="1" y2="1"><stop stop-color="#050908"/><stop offset="1" stop-color="#102018"/></linearGradient><filter id="g"><feGaussianBlur stdDeviation="9"/></filter></defs>
<rect width="1200" height="675" fill="url(#bg)"/>
<g stroke="#58d8ff" stroke-opacity=".13" fill="none"><path d="M0 110h1200M0 220h1200M0 330h1200M0 440h1200M0 550h1200M150 0v675M300 0v675M450 0v675M600 0v675M750 0v675M900 0v675M1050 0v675"/></g>

<path d="M120 480C360 310 650 250 1080 135" stroke="#58d8ff" stroke-opacity=".36" fill="none" stroke-width="3" stroke-dasharray="12 16"/><path d="M230 405l108-43 94-86 23 12-68 98 78 23 46-20 14 9-71 41-86-14-72 31z" fill="#58d8ff" opacity=".7"/>


<rect x="650" y="155" width="430" height="250" rx="24" fill="#0a100d" stroke="#58d8ff" stroke-opacity=".3"/>
<text x="690" y="270" fill="#eef7f0" font-family="Arial" font-size="66" font-weight="900">5643</text>
<text x="692" y="325" fill="#58d8ff" font-family="Arial" font-size="28" font-weight="700">kHz USB • NIGHT AIR</text>
<text x="72" y="620" fill="#789184" font-family="Arial" font-size="22" font-weight="700" letter-spacing="4">SYDNEY HF OPERATIONS DESK</text>
</svg>