<svg xmlns="http://www.w3.org/2000/svg" width="1200" height="675" viewBox="0 0 1200 675">
<defs><linearGradient id="bg" x2="1" y2="1"><stop stop-color="#050908"/><stop offset="1" stop-color="#102018"/></linearGradient></defs>
<rect width="1200" height="675" fill="url(#bg)"/><g stroke="#e8f0e9" stroke-opacity=".13" fill="none"><path d="M0 110h1200M0 220h1200M0 330h1200M0 440h1200M0 550h1200M150 0v675M300 0v675M450 0v675M600 0v675M750 0v675M900 0v675M1050 0v675"/></g>


<path d="M70 400c55-15 80-125 140-110s80 155 140 135 60-235 125-210 60 185 118 170 78-112 125-95 82 120 132 107 72-82 115-70" fill="none" stroke="#e8f0e9" stroke-width="5"/>
<rect x="650" y="155" width="430" height="250" rx="24" fill="#0a100d" stroke="#e8f0e9" stroke-opacity=".3"/>
<text x="690" y="270" fill="#eef7f0" font-family="Arial" font-size="58" font-weight="900">ABC SYDNEY</text>
<text x="692" y="325" fill="#e8f0e9" font-family="Arial" font-size="26" font-weight="700">LOCAL INFORMATION</text>
<text x="72" y="620" fill="#789184" font-family="Arial" font-size="22" font-weight="700" letter-spacing="4">SYDNEY HF OPERATIONS DESK</text></svg>